<svg width="24" height="31" viewBox="0 0 24 31" fill="none" xmlns="http://www.w3.org/2000/svg">
<g clip-path="url(#clip0_2_272)">
<path d="M23.1393 15.3939C23.1393 13.3698 22.6486 11.4836 21.6672 9.73545C20.7011 8.0333 19.3976 6.66085 17.7568 5.6181C16.0547 4.54467 14.1954 3.95428 12.1789 3.84694C10.1623 3.7396 8.24935 4.13063 6.43986 5.02004C4.69171 5.89412 3.25025 7.12856 2.11549 8.72336C0.965386 10.3642 0.282994 12.189 0.0683089 14.1978C-0.146376 16.2067 0.144982 18.1312 0.942384 19.9713C1.70912 21.7655 2.85922 23.2683 4.39268 24.4797C5.97215 25.7218 7.75864 26.5039 9.75215 26.8259V18.7292H6.83089V15.3939H9.75215V12.8407C9.75215 11.4146 10.1432 10.3067 10.9252 9.51693C11.7073 8.7272 12.7731 8.33233 14.1225 8.33233C14.9966 8.34766 15.863 8.42434 16.7217 8.56235V11.4146H15.2726C15.0273 11.3839 14.7819 11.4069 14.5366 11.4836C14.2912 11.5603 14.0765 11.6868 13.8925 11.8631C13.7085 12.0395 13.5743 12.2465 13.49 12.4842C13.4056 12.7219 13.3711 12.9711 13.3865 13.2318V15.3939H16.5837L16.0777 18.7292H13.3865V26.8259C15.242 26.5346 16.9211 25.8368 18.4239 24.7327C19.8807 23.6593 21.0231 22.3099 21.8512 20.6844C22.7099 19.0283 23.1393 17.2648 23.1393 15.3939Z" fill="white"/>
</g>
<defs>
<clipPath id="clip0_2_272">
<rect width="23.14" height="29.89" fill="white" transform="matrix(1 0 0 -1 0 30.27)"/>
</clipPath>
</defs>
</svg>
