<svg width="36" height="36" viewBox="0 0 36 36" fill="none" xmlns="http://www.w3.org/2000/svg">
<g clip-path="url(#clip0_18_30)">
<path d="M19.5005 30.3527C15.726 26.5782 15.726 20.4585 19.5005 16.684L26.3348 9.8497L33.1692 16.684C36.9436 20.4585 36.9436 26.5782 33.1692 30.3526C29.3946 34.1272 23.275 34.1272 19.5005 30.3527Z" fill="#00BEFF"/>
<path d="M32.9495 18.5363C34.1545 21.5266 33.5463 25.0773 31.1226 27.5008C27.8853 30.7381 22.6365 30.7381 19.3992 27.5008C19.1214 27.223 18.8764 26.926 18.6462 26.6211C19.0509 27.6252 19.6593 28.5663 20.4731 29.3801C23.7104 32.6174 28.9593 32.6174 32.1965 29.3801C35.1561 26.4205 35.4012 21.7843 32.9495 18.5363Z" fill="white"/>
<path d="M3.51423 28.2684C-1.17133 23.5828 -1.17133 15.986 3.51423 11.3004L11.9982 2.81642L20.4822 11.3004C25.1677 15.986 25.1677 23.5828 20.4822 28.2684C15.7966 32.9539 8.1998 32.9539 3.51423 28.2684Z" fill="#BCE5FF"/>
<path d="M20.2094 13.5997C21.7054 17.3118 20.9502 21.7195 17.9416 24.7281C13.9228 28.7469 7.40708 28.7469 3.38838 24.7281C3.04358 24.3833 2.7394 24.0145 2.45374 23.6361C2.95607 24.8825 3.71125 26.0508 4.72156 27.0611C8.74034 31.0799 15.2561 31.0799 19.2748 27.0611C22.9488 23.3871 23.253 17.6319 20.2094 13.5997Z" fill="white"/>
</g>
<defs>
<clipPath id="clip0_18_30">
<rect width="36" height="36" fill="white"/>
</clipPath>
</defs>
</svg>
